# xmcd
#
# Track frame offsets:
#	150
#	17387
#	34660
#	54820
#	71960
#	85675
#	103575
#	123637
#	141207
#	154617
#	184855
#
# Disc length: 3952 seconds
#
# Revision: 0
# Processed by: cddbd v1.5.2PL0 Copyright (c) Steve Scherf et al.
# Submitted via: EasyCDDAExtractor 4.6.0.1
#
DISCID=890f6e0b
DTITLE=Alan Jackson - High Milleage
DYEAR=1998
DGENRE=Country
TTITLE0=Right On The Money
TTITLE1=Gone Crazy
TTITLE2=Little Man
TTITLE3=What A Day Yesterday Was
TTITLE4=Hurtin' Comes Easy
TTITLE5=I'll Go On Loving You
TTITLE6=Another Good Reason
TTITLE7=A Woman's Love
TTITLE8=Dancin' All Around It
TTITLE9=Amarillo
TTITLE10=Data
EXTD=
EXTT0=
EXTT1=
EXTT2=
EXTT3=
EXTT4=
EXTT5=
EXTT6=
EXTT7=
EXTT8=
EXTT9=
EXTT10=
PLAYORDER=
